<?xml version="1.0" encoding="utf-8"?>
<!-- Generator: Adobe Illustrator 23.0.1, SVG Export Plug-In . SVG Version: 6.00 Build 0)  -->
<svg version="1.1" id="Layer_1" xmlns="http://www.w3.org/2000/svg" xmlns:xlink="http://www.w3.org/1999/xlink" x="0px" y="0px"
	 viewBox="0 0 841.9 595.3" style="enable-background:new 0 0 841.9 595.3;" xml:space="preserve">
<style type="text/css">
	.st0{fill:#FFFFFF;}
</style>
<g>
	<rect class="st0" width="841.9" height="595.3"/>
	<g>
		
			<image style="overflow:visible;enable-background:new    ;" width="2767" height="2413" xlink:href="6DC549BFEA7E7E4C.png"  transform="matrix(9.002663e-02 0 0 7.570726e-02 285.8963 186.2826)">
		</image>
		
			<image style="overflow:visible;enable-background:new    ;" width="2063" height="2075" xlink:href="6DC549BFEA7E7E4D.png"  transform="matrix(8.999398e-02 0 0 7.567980e-02 296.0283 202.3058)">
		</image>
		
			<image style="overflow:visible;enable-background:new    ;" width="1708" height="1804" xlink:href="6DC549BFEA7E7E42.png"  transform="matrix(9.000481e-02 0 0 7.568891e-02 315.6727 209.8951)">
		</image>
		
			<image style="overflow:visible;enable-background:new    ;" width="1308" height="1446" xlink:href="6DC549BFEA7E7E43.png"  transform="matrix(8.990995e-02 0 0 7.560913e-02 329.1293 223.264)">
		</image>
		
			<image style="overflow:visible;enable-background:new    ;" width="1063" height="1167" xlink:href="6DC549BFEA7E7E44.png"  transform="matrix(8.957572e-02 0 0 7.532806e-02 338.6086 231.1462)">
		</image>
		
			<image style="overflow:visible;enable-background:new    ;" width="867" height="875" xlink:href="6DC549BFEA7E7E41.png"  transform="matrix(8.963607e-02 0 0 7.537881e-02 345.2077 240.6548)">
		</image>
		
			<image style="overflow:visible;enable-background:new    ;" width="675" height="708" xlink:href="6DC549BFEA7E7E40.png"  transform="matrix(8.972012e-02 0 0 7.544949e-02 352.5068 247.1499)">
		</image>
		
			<image style="overflow:visible;enable-background:new    ;" width="517" height="550" xlink:href="6DC549BFEA7E7E5F.png"  transform="matrix(8.903294e-02 0 0 7.487161e-02 361.0404 254.1579)">
		</image>
		
			<image style="overflow:visible;enable-background:new    ;" width="308" height="300" xlink:href="6DC549BFEA7E7E5A.png"  transform="matrix(8.878978e-02 0 0 7.466713e-02 369.6105 264.435)">
		</image>
	</g>
</g>
</svg>
